<?xml version="1.0" encoding="UTF-8" standalone="no"?>
<svg
   xmlns:dc="http://purl.org/dc/elements/1.1/"
   xmlns:cc="http://creativecommons.org/ns#"
   xmlns:rdf="http://www.w3.org/1999/02/22-rdf-syntax-ns#"
   xmlns:svg="http://www.w3.org/2000/svg"
   xmlns="http://www.w3.org/2000/svg"
   xmlns:sodipodi="http://sodipodi.sourceforge.net/DTD/sodipodi-0.dtd"
   xmlns:inkscape="http://www.inkscape.org/namespaces/inkscape"
   version="1.0"
   width="775.69513pt"
   height="776.00867pt"
   viewBox="0 0 775.69513 776.00867"
   preserveAspectRatio="xMidYMid meet"
   id="svg4617"
   sodipodi:docname="logo.svg"
   inkscape:version="0.92.2 (5c3e80d, 2017-08-06)"
   inkscape:export-filename="D:\Drive-m0swn\UKUAR\Branding\logo.png"
   inkscape:export-xdpi="96"
   inkscape:export-ydpi="96">
  <metadata
     id="metadata4623">
    <rdf:RDF>
      <cc:Work
         rdf:about="">
        <dc:format>image/svg+xml</dc:format>
        <dc:type
           rdf:resource="http://purl.org/dc/dcmitype/StillImage" />
        <dc:title />
      </cc:Work>
    </rdf:RDF>
  </metadata>
  <defs
     id="defs4621" />
  <sodipodi:namedview
     pagecolor="#ffffff"
     bordercolor="#666666"
     borderopacity="1"
     objecttolerance="10"
     gridtolerance="10"
     guidetolerance="10"
     inkscape:pageopacity="0"
     inkscape:pageshadow="2"
     inkscape:window-width="1278"
     inkscape:window-height="1368"
     id="namedview4619"
     showgrid="false"
     fit-margin-top="0"
     fit-margin-left="0"
     fit-margin-right="0"
     fit-margin-bottom="0"
     inkscape:zoom="0.708"
     inkscape:cx="249.59171"
     inkscape:cy="568.94909"
     inkscape:window-x="2353"
     inkscape:window-y="252"
     inkscape:window-maximized="0"
     inkscape:current-layer="svg4617" />
  <g
     transform="matrix(0.1,0,0,-0.1,-112.1491,887.99655)"
     id="g4615"
     style="fill:#000000;stroke:none">
    <path
       d="M 4700,8869 C 3894,8803 3164,8507 2522,7984 2397,7882 2118,7603 2016,7478 1546,6901 1263,6264 1161,5555 c -143,-995 106,-2015 685,-2811 145,-200 238,-308 414,-484 408,-408 855,-696 1397,-901 492,-185 1094,-270 1624,-229 821,64 1548,357 2197,886 125,102 404,381 506,506 354,435 599,897 746,1409 325,1136 109,2383 -576,3325 -145,200 -238,308 -414,484 -408,408 -855,696 -1397,901 -494,186 -1109,271 -1643,228 z m 720,-115 c 74,-8 196,-26 270,-40 1527,-281 2742,-1496 3024,-3024 47,-253 60,-405 60,-690 0,-285 -13,-437 -60,-690 C 8432,2782 7218,1568 5690,1286 c -253,-47 -405,-60 -690,-60 -285,0 -437,13 -690,60 -1528,282 -2742,1496 -3024,3024 -47,253 -60,405 -60,690 0,284 13,435 60,690 279,1524 1497,2743 3024,3024 135,25 357,52 480,60 127,7 497,-4 630,-20 z"
       id="path4575"
       inkscape:connector-curvature="0"
       style="fill:#03206c;fill-opacity:1" />
    <path
       d="M 4730,8679 C 3993,8627 3278,8345 2691,7877 2529,7748 2252,7470 2124,7310 1673,6744 1411,6104 1329,5370 c -17,-149 -17,-591 0,-740 82,-734 344,-1374 795,-1940 128,-160 406,-438 566,-566 277,-220 564,-392 876,-523 1253,-525 2680,-326 3743,522 162,129 439,407 567,567 451,567 713,1205 795,1940 17,149 17,591 0,740 -82,735 -344,1373 -795,1940 -128,160 -405,438 -567,567 -733,585 -1645,868 -2579,802 z m 219,-446 65,-192 54,152 c 29,84 59,168 66,187 12,33 16,35 64,38 29,2 52,-1 52,-5 0,-4 -41,-122 -92,-260 l -92,-253 h -52 -52 l -26,73 c -85,237 -156,442 -156,449 0,5 24,8 52,6 l 52,-3 z m -487,-118 c 26,-137 45,-251 43,-253 -5,-5 -89,-21 -92,-18 -3,3 -93,484 -93,499 0,16 28,26 70,23 24,-1 25,-6 72,-251 z m 1358,211 c 77,-18 143,-36 147,-39 8,-8 -7,-87 -17,-87 -5,0 -55,11 -112,24 -56,14 -106,22 -109,18 -5,-6 -29,-92 -29,-105 0,-2 45,-14 100,-27 55,-13 100,-28 100,-34 0,-6 -5,-27 -10,-47 l -10,-37 -93,24 c -50,13 -97,24 -103,24 -9,0 -39,-109 -31,-115 1,-2 49,-14 107,-28 l 105,-25 -2,-38 c -2,-21 -7,-42 -11,-46 -6,-6 -296,55 -320,68 -2,1 101,444 114,487 7,23 9,22 174,-17 z M 3996,8001 c 104,-253 102,-241 33,-262 -36,-11 -36,-11 -195,106 -87,65 -165,123 -173,129 -12,9 -13,8 -8,-4 3,-8 35,-85 71,-170 36,-85 63,-157 58,-161 -4,-4 -24,-14 -44,-22 -27,-11 -38,-12 -41,-4 -3,7 -44,107 -92,222 -48,116 -91,220 -95,232 -8,19 -3,23 44,43 l 54,21 162,-120 c 89,-67 164,-121 166,-121 3,0 -1,10 -7,23 -7,12 -38,84 -70,160 l -57,137 41,19 c 23,10 45,15 49,12 4,-4 51,-112 104,-240 z m 2482,90 c 139,-70 180,-121 167,-208 -11,-74 -78,-133 -150,-133 -35,0 -36,-1 -30,-32 13,-80 31,-218 28,-218 -2,0 -26,11 -52,25 -54,27 -48,12 -72,182 -9,67 -15,83 -31,89 -24,7 -18,15 -67,-83 l -41,-83 -44,22 -44,21 116,234 c 64,128 118,233 120,233 1,0 46,-22 100,-49 z M 3212,7738 c 121,-161 141,-197 141,-261 1,-83 -44,-150 -128,-188 -49,-23 -94,-24 -143,-4 -52,22 -71,42 -190,199 l -105,139 24,19 c 56,44 50,47 154,-92 114,-153 143,-180 192,-180 45,0 103,54 103,97 0,35 -13,56 -129,213 l -92,125 33,28 c 18,15 36,27 40,27 4,0 49,-55 100,-122 z m 2018,-28 c 1010,-91 1880,-722 2278,-1650 147,-341 215,-680 215,-1065 0,-457 -91,-836 -297,-1242 -373,-733 -1077,-1269 -1884,-1433 -336,-68 -748,-68 -1084,0 -1142,233 -2013,1172 -2164,2336 -20,156 -23,494 -5,639 105,850 567,1575 1287,2021 486,301 1089,444 1654,394 z m 1937,-46 c 56,-46 75,-78 81,-133 5,-60 -7,-70 -63,-51 -31,10 -35,16 -35,45 0,25 -8,40 -31,59 -36,30 -55,32 -81,9 -24,-22 -23,-41 9,-99 69,-128 78,-167 48,-223 -20,-39 -68,-78 -106,-86 -115,-26 -244,106 -225,229 9,54 11,55 58,41 42,-12 43,-14 40,-50 -4,-50 15,-93 49,-110 36,-19 58,-19 81,2 27,24 22,56 -23,144 -62,121 -55,190 24,240 47,30 125,22 174,-17 z m 482,-500 c 0,-5 -89,-83 -197,-173 l -196,-163 -34,37 c -19,20 -32,38 -30,39 1,2 92,78 201,169 l 198,167 30,-34 c 16,-19 29,-38 28,-42 z M 2281,6792 c 17,-57 25,-72 38,-68 26,8 341,19 341,13 0,-4 -12,-26 -27,-50 -24,-41 -30,-45 -77,-51 -28,-3 -83,-6 -123,-6 -101,0 -105,-2 -87,-53 12,-35 25,-48 79,-81 l 65,-38 -23,-38 c -12,-20 -26,-38 -32,-39 -15,-1 -435,261 -435,272 0,11 39,77 46,77 2,0 41,-23 85,-51 45,-28 87,-53 94,-55 8,-4 -3,45 -32,136 l -44,141 32,51 33,51 22,-69 c 13,-38 33,-102 45,-142 z m 5680,-69 c 39,-71 83,-147 96,-170 l 24,-42 -41,-21 c -23,-12 -43,-20 -45,-18 -1,2 -17,29 -35,61 -17,31 -34,57 -36,57 -5,0 -309,-170 -351,-196 -20,-13 -23,-11 -46,31 l -25,44 182,102 c 99,56 183,104 186,106 3,3 -10,31 -28,63 -17,32 -32,61 -32,63 0,6 62,47 72,47 4,0 39,-57 79,-127 z M 1989,6189 c 221,-73 271,-117 271,-236 -1,-115 -88,-203 -199,-203 -22,0 -117,25 -211,56 -161,52 -171,56 -164,77 14,45 24,67 30,67 3,0 77,-22 163,-50 165,-52 194,-57 235,-39 25,12 56,63 56,94 0,31 -29,72 -62,88 -18,8 -99,36 -180,62 -82,26 -148,52 -148,58 0,27 25,87 34,84 6,-2 85,-28 175,-58 z m 6252,-70 13,-47 -67,-73 c -37,-40 -65,-75 -63,-77 3,-2 46,-14 96,-27 50,-13 93,-25 95,-27 10,-11 31,-108 24,-108 -5,0 -77,19 -159,42 l -150,41 -104,-31 c -57,-18 -111,-32 -119,-32 -8,0 -18,12 -21,28 -4,15 -9,35 -12,44 -4,13 12,22 83,43 48,14 102,30 118,36 20,6 66,50 135,129 57,66 107,116 112,112 4,-4 12,-28 19,-53 z M 1925,5053 c 52,-26 95,-50 95,-53 0,-3 -44,-27 -98,-54 l -98,-48 -103,52 -104,52 99,48 c 54,27 102,49 106,49 4,1 51,-20 103,-46 z m 6380,0 c 52,-26 95,-50 95,-53 0,-3 -44,-27 -97,-54 l -97,-48 -98,48 c -54,27 -98,51 -98,54 0,6 179,98 192,99 4,1 51,-20 103,-46 z m -87,-622 c 103,-53 152,-132 152,-246 0,-56 -5,-82 -26,-123 -69,-138 -231,-190 -371,-119 -58,30 -98,73 -126,136 -28,64 -21,181 16,244 34,58 89,103 147,122 58,19 157,12 208,-14 z M 1870,4325 c 135,-14 250,-25 257,-25 7,0 20,-25 29,-56 15,-53 15,-56 -3,-69 -10,-7 -110,-79 -223,-159 -113,-80 -208,-146 -212,-146 -8,0 -28,66 -28,90 0,8 23,30 50,48 30,19 50,39 49,50 0,9 -10,53 -22,97 -22,80 -22,80 -57,83 -89,6 -99,11 -110,50 -14,51 -13,62 8,62 9,0 127,-11 262,-25 z m 456,-582 c 5,-10 20,-34 32,-54 l 22,-36 -125,-151 c -69,-84 -125,-153 -125,-155 0,-2 88,11 195,28 l 196,31 30,-54 c 17,-29 27,-57 23,-61 -15,-14 -432,-251 -441,-251 -4,0 -18,18 -30,39 l -23,39 113,65 c 61,36 130,74 152,85 22,12 37,21 33,22 -4,0 -77,-11 -162,-25 -195,-31 -200,-31 -221,2 -22,32 -25,27 107,190 54,67 98,124 98,127 0,3 -35,-17 -77,-43 -103,-63 -213,-124 -217,-120 -1,2 -12,21 -24,41 -15,28 -18,39 -9,45 32,21 433,252 437,252 3,1 10,-7 16,-16 z m 5586,-134 218,-109 -21,-44 -22,-43 -151,72 c -238,114 -316,154 -316,165 0,5 8,25 17,45 13,28 21,34 37,29 12,-4 119,-56 238,-115 z m -277,-347 c 52,-26 120,-97 140,-144 18,-44 20,-116 4,-168 -12,-39 -143,-225 -159,-225 -11,0 -410,305 -410,313 0,3 21,33 47,66 115,150 176,190 278,183 34,-2 78,-13 100,-25 z M 2924,2801 c -19,-42 -71,-156 -116,-254 l -81,-178 -39,39 -39,39 27,56 27,55 -62,71 c -35,39 -69,71 -77,71 -8,0 -38,-12 -66,-26 l -51,-26 -39,39 -39,39 253,116 253,115 42,-40 41,-40 z m 4274,-266 c 83,-49 152,-93 152,-97 0,-3 -18,-20 -41,-36 l -41,-31 -54,35 c -61,39 -48,43 -151,-39 l -61,-49 19,-55 c 10,-31 19,-61 19,-67 -1,-16 -72,-68 -81,-59 -4,5 -44,122 -90,262 l -82,254 43,37 44,37 86,-51 c 48,-28 155,-91 238,-141 z m -3798,-10 c 88,-57 160,-107 160,-111 0,-5 -22,-39 -46,-72 -1,-2 -29,15 -62,37 l -60,41 -117,-180 -117,-180 -39,23 c -21,12 -39,26 -39,30 0,5 50,85 110,178 61,94 110,174 110,178 0,5 -25,25 -55,45 -30,20 -55,38 -55,41 0,6 44,75 47,75 2,0 75,-47 163,-105 z m 3038,-192 c 53,-39 74,-83 70,-141 -3,-33 -13,-64 -26,-81 l -21,-29 104,-61 c 58,-34 105,-63 105,-66 0,-3 -21,-15 -47,-28 l -46,-24 -102,58 c -108,62 -112,64 -134,50 -10,-7 -5,-26 28,-96 23,-48 41,-89 41,-90 0,-9 -84,-35 -91,-28 -19,19 -219,457 -212,464 4,4 53,28 108,54 85,39 107,45 148,42 27,-2 60,-13 75,-24 z M 3990,2230 c 41,-15 87,-33 102,-39 l 27,-10 -16,-41 c -9,-22 -21,-40 -28,-40 -6,0 -52,16 -101,35 -49,19 -94,35 -99,35 -9,0 -45,-82 -45,-102 0,-3 42,-23 94,-43 l 94,-36 -15,-45 c -8,-24 -16,-44 -17,-44 0,0 -41,16 -90,35 -49,19 -93,35 -98,35 -4,0 -14,-15 -22,-33 -32,-78 -36,-72 71,-113 54,-20 102,-40 107,-45 13,-11 -19,-85 -36,-81 -7,1 -76,27 -153,56 -93,36 -139,59 -137,68 4,16 172,460 178,470 3,4 28,-2 57,-13 29,-12 86,-34 127,-49 z m 486,-135 c 7,-2 3,-57 -13,-172 -13,-92 -21,-182 -18,-199 11,-64 97,-104 150,-70 40,26 52,62 76,239 l 22,167 h 44 c 29,0 46,-5 49,-14 3,-8 -6,-91 -20,-185 -31,-210 -49,-252 -128,-292 -69,-35 -179,-19 -236,34 -60,56 -68,110 -42,299 30,225 25,210 68,203 21,-4 42,-8 48,-10 z m 913,-50 c 64,-32 98,-129 71,-195 -7,-17 -30,-45 -50,-63 l -38,-32 80,-95 79,-95 -57,-8 c -31,-5 -57,-7 -58,-5 -1,2 -35,42 -75,91 -56,67 -79,87 -98,87 -24,0 -25,-1 -19,-57 3,-32 7,-76 8,-98 l 3,-40 -47,-3 c -46,-3 -47,-2 -52,30 -7,42 -45,482 -43,485 2,1 43,6 92,12 105,11 164,7 204,-14 z"
       id="path4577"
       inkscape:connector-curvature="0"
       style="fill:#c7102e;fill-opacity:1" />
    <path
       d="m 6389,7949 c -16,-34 -29,-62 -27,-64 2,-1 22,-12 46,-24 56,-28 99,-24 125,11 30,41 15,76 -48,110 -28,15 -53,28 -57,28 -4,0 -22,-27 -39,-61 z"
       id="path4579"
       inkscape:connector-curvature="0"
       style="fill:#c7102e;fill-opacity:1" />
    <path
       d="M 4903,7523 C 4853,7419 4553,6808 4236,6164 L 3660,4992 4327,3636 c 366,-746 669,-1356 673,-1356 4,0 307,610 673,1356 l 667,1356 -668,1359 c -367,747 -670,1359 -673,1359 -3,0 -46,-84 -96,-187 z m 697,-1295 c 327,-666 596,-1218 598,-1228 3,-18 -1187,-2450 -1198,-2450 -11,0 -1201,2433 -1198,2450 4,22 1191,2439 1198,2439 3,0 273,-545 600,-1211 z"
       id="path4581"
       inkscape:connector-curvature="0"
       style="fill:#03206c;fill-opacity:1" />
    <path
       d="m 4967,7105 -27,-55 v -318 -317 l -104,104 -104,104 -32,-63 -32,-63 136,-136 136,-136 v -273 -272 h -338 -338 l -32,-65 -32,-65 h 800 800 l -32,65 -32,65 h -338 -338 v 272 273 l 136,136 136,136 -32,63 -32,63 -104,-104 -104,-104 v 317 318 l -27,55 c -15,30 -30,55 -33,55 -3,0 -18,-25 -33,-55 z"
       id="path4583"
       inkscape:connector-curvature="0"
       style="stroke:none;stroke-opacity:1;fill:#c80f2e;fill-opacity:1" />
    <path
       d="m 4533,5142 c -255,-75 -463,-138 -463,-142 0,-7 907,-301 930,-301 23,0 930,294 930,301 0,5 -682,207 -923,274 -6,2 -220,-57 -474,-132 z"
       id="path4585"
       inkscape:connector-curvature="0"
       style="stroke:none;stroke-opacity:1;fill:#c80f2e;fill-opacity:1" />
    <path
       d="m 4460,4641 v -159 l 73,-25 c 120,-43 200,-61 360,-82 l 47,-6 -2,-287 -3,-287 -208,-3 -207,-2 30,-60 30,-60 h 420 420 l 30,60 30,60 -207,2 -208,3 -3,287 -2,287 47,6 c 160,21 240,39 361,82 l 72,25 v 159 c 0,121 -3,159 -12,159 -7,0 -129,-38 -270,-84 l -258,-84 -257,84 c -142,46 -264,84 -270,84 -10,0 -13,-38 -13,-159 z"
       id="path4587"
       inkscape:connector-curvature="0"
       style="stroke:none;stroke-opacity:1;fill:#c80f2e;fill-opacity:1" />
    <path
       d="m 4650,3520 30,-60 h 320 320 l 30,60 30,60 h -380 -380 z"
       id="path4589"
       inkscape:connector-curvature="0"
       style="stroke:none;stroke-opacity:1;fill:#c80f2e;fill-opacity:1" />
    <path
       d="m 4730,3365 c 0,-3 14,-32 30,-65 l 30,-60 h 210 210 l 30,60 c 16,33 30,62 30,65 0,3 -121,5 -270,5 -148,0 -270,-2 -270,-5 z"
       id="path4591"
       inkscape:connector-curvature="0"
       style="stroke:none;stroke-opacity:1;fill:#c80f2e;fill-opacity:1" />
    <path
       d="m 4862,3095 32,-65 h 106 106 l 32,65 32,65 h -170 -170 z"
       id="path4593"
       inkscape:connector-curvature="0"
       style="stroke:none;stroke-opacity:1;fill:#c80f2e;fill-opacity:1" />
    <path
       d="m 4962,2885 c 18,-36 35,-65 38,-65 3,0 20,29 38,65 l 32,65 h -70 -70 z"
       id="path4595"
       inkscape:connector-curvature="0"
       style="stroke:none;stroke-opacity:1;fill:#c80f2e;fill-opacity:1" />
    <path
       d="M 4650,7614 C 3439,7449 2491,6470 2369,5256 c -17,-173 -7,-527 20,-685 97,-563 348,-1052 745,-1446 140,-139 227,-212 381,-317 335,-229 714,-376 1115,-432 133,-19 220,-26 220,-19 0,3 -18,26 -39,52 l -39,46 -101,13 c -441,52 -905,250 -1271,542 -511,407 -854,1024 -935,1680 -20,161 -20,459 0,620 58,467 255,932 551,1299 96,119 262,284 384,381 366,292 821,486 1269,543 l 104,13 35,42 35,42 -44,-1 c -24,-1 -91,-7 -149,-15 z"
       id="path4597"
       inkscape:connector-curvature="0"
       style="fill:#03206c;fill-opacity:1" />
    <path
       d="m 5192,7588 35,-42 104,-13 c 448,-57 916,-258 1279,-550 420,-337 739,-841 870,-1375 57,-231 65,-309 65,-608 0,-299 -8,-377 -65,-608 -87,-356 -264,-713 -497,-1002 -87,-109 -264,-286 -373,-373 -364,-293 -840,-497 -1281,-550 l -102,-12 -39,-49 c -21,-27 -37,-50 -36,-51 2,-2 45,1 97,6 443,41 867,195 1236,447 154,105 241,178 381,317 397,394 648,883 745,1446 27,158 37,512 20,685 -114,1132 -949,2071 -2061,2318 -115,25 -324,56 -382,56 h -31 z"
       id="path4599"
       inkscape:connector-curvature="0"
       style="fill:#03206c;fill-opacity:1" />
    <path
       d="m 8025,4346 c -101,-44 -136,-185 -67,-268 122,-145 353,-39 318,146 -19,99 -154,164 -251,122 z"
       id="path4601"
       inkscape:connector-curvature="0"
       style="fill:#c7102e;fill-opacity:1" />
    <path
       d="m 1844,4214 c 4,-10 12,-40 18,-67 7,-26 14,-46 18,-45 22,9 159,104 160,111 0,4 -28,7 -62,7 -35,0 -81,3 -102,7 -36,6 -39,4 -32,-13 z"
       id="path4603"
       inkscape:connector-curvature="0"
       style="fill:#c7102e;fill-opacity:1" />
    <path
       d="m 7439,3165 c -20,-13 -50,-43 -67,-66 l -31,-42 129,-98 c 71,-55 132,-99 137,-99 13,0 72,93 83,130 15,51 -3,101 -51,144 -69,63 -138,74 -200,31 z"
       id="path4605"
       inkscape:connector-curvature="0"
       style="fill:#c7102e;fill-opacity:1" />
    <path
       d="m 2742,2792 -92,-47 48,-48 48,-47 47,95 c 26,52 46,95 44,94 -1,0 -44,-21 -95,-47 z"
       id="path4607"
       inkscape:connector-curvature="0"
       style="fill:#c7102e;fill-opacity:1" />
    <path
       d="m 6931,2518 c 16,-46 32,-89 34,-96 4,-10 20,-2 55,25 27,21 48,41 47,45 -2,6 -154,108 -162,108 -2,0 10,-37 26,-82 z"
       id="path4609"
       inkscape:connector-curvature="0"
       style="fill:#c7102e;fill-opacity:1" />
    <path
       d="m 6272,2239 c -24,-10 -42,-22 -40,-27 1,-4 14,-33 27,-65 14,-31 29,-57 33,-57 5,0 31,11 58,25 35,18 52,33 57,53 22,81 -40,114 -135,71 z"
       id="path4611"
       inkscape:connector-curvature="0"
       style="fill:#c7102e;fill-opacity:1" />
    <path
       d="m 5205,1898 c 4,-40 8,-74 9,-75 7,-9 120,18 136,32 24,22 26,62 4,93 -13,19 -24,22 -86,22 h -70 z"
       id="path4613"
       inkscape:connector-curvature="0"
       style="fill:#c7102e;fill-opacity:1" />
  </g>
</svg>
